<?xml version="1.0" standalone="no"?>
<!DOCTYPE svg PUBLIC "-//W3C//DTD SVG 20010904//EN"
 "http://www.w3.org/TR/2001/REC-SVG-20010904/DTD/svg10.dtd">
<svg version="1.0" xmlns="http://www.w3.org/2000/svg"
 width="700.000000pt" height="700.000000pt" viewBox="0 0 700.000000 700.000000"
 preserveAspectRatio="xMidYMid meet">
<metadata>
Created by potrace 1.14, written by Peter Selinger 2001-2017
</metadata>
<g transform="translate(0.000000,700.000000) scale(0.100000,-0.100000)"
fill="#000000" stroke="none">
<path d="M3278 6995 c-1 -1 -42 -5 -89 -9 -47 -4 -95 -8 -105 -10 -10 -2 -41
-7 -69 -10 -335 -44 -715 -158 -1030 -312 -180 -87 -448 -247 -555 -331 -8 -6
-51 -40 -95 -74 -338 -263 -653 -628 -875 -1014 -47 -82 -170 -327 -170 -339
0 -3 -11 -29 -24 -58 -41 -92 -114 -303 -142 -413 -4 -16 -8 -34 -10 -40 -5
-16 -25 -98 -30 -120 -39 -194 -47 -242 -60 -350 -26 -230 -26 -667 1 -826 2
-13 6 -46 9 -74 47 -409 239 -952 466 -1318 30 -48 60 -95 65 -105 22 -40 128
-184 202 -278 201 -251 445 -481 722 -678 67 -47 123 -86 126 -86 3 0 37 -21
77 -47 227 -145 616 -311 911 -387 117 -31 257 -61 327 -70 78 -11 126 -18
150 -22 146 -25 699 -25 840 0 14 3 47 7 74 11 97 12 224 36 346 66 134 33
400 119 464 150 22 10 44 19 49 19 16 0 311 147 403 201 549 321 1001 783
1306 1334 60 108 151 295 163 335 4 14 11 30 15 35 26 32 151 429 176 558 2
10 6 27 9 37 3 10 7 31 10 46 2 16 6 43 9 59 3 17 8 46 11 65 3 19 7 46 10 60
3 14 7 48 10 75 3 28 8 66 11 85 9 60 12 530 3 622 -14 145 -22 210 -39 308
-6 36 -13 79 -16 95 -15 84 -71 294 -111 414 -226 682 -661 1283 -1239 1713
-446 331 -989 560 -1528 644 -21 3 -48 7 -59 10 -12 2 -49 6 -83 10 -33 3 -74
8 -90 10 -32 5 -540 14 -546 9z"/>
</g>
</svg>
