<link rel="stylesheet" href="../styles.css">
<svg id="Layer_1" data-name="Layer 1" xmlns="http://www.w3.org/2000/svg" xmlns:xlink="http://www.w3.org/1999/xlink" viewBox="0 0 115.3 113.65"><defs><style>.cls-1,.cls-5,.cls-6{fill:none;}.cls-2{clip-path:url(#clip-path);}.cls-3{clip-path:url(#clip-path-2);}.cls-4{fill:#5e6a4b;}.cls-5,.cls-6{stroke:#fff;stroke-miterlimit:10;}.cls-5{stroke-linecap:round;}.cls-6{stroke-width:0.5px;}.cls-7{font-size:19.56px;fill:#fff;font-family:GeosansLight;letter-spacing:0.05em;}.cls-8{letter-spacing:0.1em;}.cls-9{letter-spacing:0.04em;}.cls-10{letter-spacing:0.1em;}.cls-11{letter-spacing:0.04em;}.cls-12{letter-spacing:0.04em;}.cls-13{letter-spacing:0.14em;}</style><clipPath id="clip-path" transform="translate(-6.72 -8.17)"><circle class="cls-1" cx="65.14" cy="65.01" r="56.82"/></clipPath><clipPath id="clip-path-2" transform="translate(-6.72 -8.17)"><circle class="cls-1" cx="65.21" cy="64.99" r="56.82"/></clipPath></defs><g class="cls-2"><g class="cls-3"><circle class="cls-4" cx="58.49" cy="56.82" r="56.82"/></g><path class="cls-5" d="M17.74,113.62c1.08-.4,10.69-5.36,14.17-7.43a65.12,65.12,0,0,0,9.21-6.6,37.71,37.71,0,0,0,7-8.77c2.33-3.85,4-8.29,3.26-10.87-.06-.22-2.54-3.51-3.16-4.43C47,73.66,33.89,57.34,33.17,57.27s-9.12,8.42-9.82,8.42S19,62.42,18.44,62.42,7.88,69.69,7.22,70.13" transform="translate(-6.72 -8.17)"/><path class="cls-5" d="M118.75,88.14c-.47-.47-21.51-28.06-22.91-28.06s-7,3.74-8,3.74S72.22,49.56,71.28,49.56c-1.16,0-28.83,18.57-28.52,18.47.7-.23,5.85-.94,13.09,0,8.39,1.08,14.08,3.47,20.58,8.88,7,5.85,9.59,8.42,13.09,12.86a108.32,108.32,0,0,1,7,10.53c3.25,5.8,7.95,17.3,7.95,17.3" transform="translate(-6.72 -8.17)"/><path class="cls-5" d="M82.27,82.06a71.77,71.77,0,0,1,7.49,13.09,89.64,89.64,0,0,1,5.37,25.25" transform="translate(-6.72 -8.17)"/><path class="cls-5" d="M30.37,119.47C36.32,116,46,107.78,49.77,101.7c2.64-4.28,3.25-5.86,4-8.89.82-3.4.47-9.35-2.34-12.86" transform="translate(-6.72 -8.17)"/><circle class="cls-1" cx="58.42" cy="56.84" r="56.82"/></g><circle class="cls-6" cx="58.49" cy="56.82" r="53.66"/><text class="cls-7" transform="translate(18.13 37.6)">f<tspan class="cls-8" x="6.2" y="0">a</tspan><tspan class="cls-9" x="18.13" y="0">l</tspan><tspan class="cls-10" x="22.59" y="0">l </tspan><tspan class="cls-11" x="35.24" y="0">c</tspan><tspan class="cls-12" x="44.57" y="0">r</tspan><tspan class="cls-13" x="51.43" y="0">e</tspan><tspan class="cls-8" x="63.73" y="0">ek</tspan></text></svg>